<?xml version="1.0" encoding="UTF-8"?>
<svg id="a" data-name="Layer 1" xmlns="http://www.w3.org/2000/svg" viewBox="0 0 800 424.11">
  <defs>
    <style>
      .b {
        stroke: #fff;
        stroke-width: 10px;
      }

      .b, .c {
        fill: none;
        stroke-miterlimit: 10;
      }

      .d {
        fill: #3974b7;
      }

      .c {
        stroke: #3974b7;
        stroke-width: .5px;
      }

      .e {
        fill: #e6e7e8;
      }
    </style>
  </defs>
  <rect class="e" y="30.97" width="800" height="383.33"/>
  <g>
    <path class="d" d="M77.21,129.31v-12.88h4.86c.86,0,1.51.04,1.96.12.63.11,1.16.31,1.59.6s.77.71,1.03,1.24.39,1.12.39,1.76c0,1.1-.35,2.02-1.05,2.78s-1.96,1.14-3.78,1.14h-3.3v5.24h-1.71ZM78.92,122.55h3.33c1.1,0,1.88-.21,2.35-.62s.7-.99.7-1.73c0-.54-.14-1-.41-1.38s-.63-.64-1.08-.76c-.29-.08-.82-.11-1.59-.11h-3.3v4.61Z"/>
    <path class="d" d="M95.11,128.16c-.59.5-1.15.85-1.69,1.05s-1.12.31-1.74.31c-1.03,0-1.81-.25-2.37-.75s-.83-1.14-.83-1.92c0-.46.1-.87.31-1.25s.48-.68.82-.91.72-.4,1.14-.52c.31-.08.78-.16,1.41-.24,1.28-.15,2.22-.33,2.82-.54,0-.22,0-.35,0-.41,0-.64-.15-1.1-.45-1.36-.4-.36-1.01-.54-1.8-.54-.74,0-1.29.13-1.65.39s-.62.72-.79,1.38l-1.55-.21c.14-.66.37-1.2.69-1.6s.79-.72,1.4-.94,1.31-.33,2.12-.33,1.45.09,1.94.28.86.42,1.1.71.4.64.49,1.08c.05.27.08.76.08,1.46v2.11c0,1.47.03,2.4.1,2.79s.2.76.4,1.12h-1.65c-.16-.33-.27-.71-.32-1.15ZM94.98,124.62c-.57.23-1.44.43-2.58.6-.65.09-1.11.2-1.38.32s-.48.29-.62.51-.22.48-.22.75c0,.42.16.77.48,1.05s.79.42,1.4.42,1.15-.13,1.63-.4.82-.63,1.04-1.09c.17-.36.26-.88.26-1.58v-.58Z"/>
    <path class="d" d="M99.03,129.31v-9.33h1.42v1.33c.69-1.03,1.68-1.54,2.97-1.54.56,0,1.08.1,1.55.3s.83.47,1.06.8.4.72.49,1.17c.06.29.09.81.09,1.54v5.74h-1.58v-5.68c0-.64-.06-1.13-.19-1.45s-.34-.57-.65-.76-.68-.29-1.1-.29c-.67,0-1.25.21-1.74.64s-.73,1.24-.73,2.43v5.1h-1.58Z"/>
    <path class="d" d="M115.43,126.3l1.63.2c-.26.96-.73,1.7-1.43,2.22s-1.59.79-2.67.79c-1.37,0-2.45-.42-3.25-1.26s-1.2-2.02-1.2-3.54.4-2.79,1.21-3.66,1.86-1.3,3.15-1.3,2.27.42,3.06,1.27,1.19,2.04,1.19,3.59c0,.09,0,.23,0,.42h-6.96c.06,1.03.35,1.81.87,2.36s1.17.82,1.95.82c.58,0,1.08-.15,1.49-.46s.73-.79.97-1.46ZM110.23,123.74h5.21c-.07-.79-.27-1.37-.6-1.77-.5-.61-1.16-.91-1.96-.91-.73,0-1.34.24-1.83.73s-.77,1.14-.82,1.95Z"/>
    <path class="d" d="M119.01,129.31v-12.88h1.58v12.88h-1.58Z"/>
    <path class="d" d="M133.57,129.31h-1.58v-10.08c-.38.36-.88.73-1.5,1.09s-1.17.64-1.67.82v-1.53c.88-.42,1.66-.92,2.32-1.51s1.13-1.17,1.41-1.72h1.02v12.94Z"/>
  </g>
  <g>
    <path class="d" d="M290.24,129.31v-12.88h4.86c.86,0,1.51.04,1.96.12.63.11,1.16.31,1.59.6s.77.71,1.03,1.24.39,1.12.39,1.76c0,1.1-.35,2.02-1.05,2.78s-1.96,1.14-3.78,1.14h-3.3v5.24h-1.71ZM291.95,122.55h3.33c1.1,0,1.88-.21,2.35-.62s.7-.99.7-1.73c0-.54-.14-1-.41-1.38s-.63-.64-1.08-.76c-.29-.08-.82-.11-1.59-.11h-3.3v4.61Z"/>
    <path class="d" d="M308.14,128.16c-.59.5-1.15.85-1.69,1.05s-1.12.31-1.74.31c-1.03,0-1.81-.25-2.37-.75s-.83-1.14-.83-1.92c0-.46.1-.87.31-1.25s.48-.68.82-.91.72-.4,1.14-.52c.31-.08.78-.16,1.41-.24,1.28-.15,2.22-.33,2.82-.54,0-.22,0-.35,0-.41,0-.64-.15-1.1-.45-1.36-.4-.36-1.01-.54-1.8-.54-.74,0-1.29.13-1.65.39s-.62.72-.79,1.38l-1.55-.21c.14-.66.37-1.2.69-1.6s.79-.72,1.4-.94,1.31-.33,2.12-.33,1.45.09,1.94.28.86.42,1.1.71.4.64.49,1.08c.05.27.08.76.08,1.46v2.11c0,1.47.03,2.4.1,2.79s.2.76.4,1.12h-1.65c-.16-.33-.27-.71-.32-1.15ZM308.01,124.62c-.57.23-1.44.43-2.58.6-.65.09-1.11.2-1.38.32s-.48.29-.62.51-.22.48-.22.75c0,.42.16.77.48,1.05s.79.42,1.4.42,1.15-.13,1.63-.4.82-.63,1.04-1.09c.17-.36.26-.88.26-1.58v-.58Z"/>
    <path class="d" d="M312.06,129.31v-9.33h1.42v1.33c.69-1.03,1.68-1.54,2.97-1.54.56,0,1.08.1,1.55.3s.83.47,1.06.8.4.72.49,1.17c.06.29.09.81.09,1.54v5.74h-1.58v-5.68c0-.64-.06-1.13-.19-1.45s-.34-.57-.65-.76-.68-.29-1.1-.29c-.67,0-1.25.21-1.74.64s-.73,1.24-.73,2.43v5.1h-1.58Z"/>
    <path class="d" d="M328.46,126.3l1.63.2c-.26.96-.73,1.7-1.43,2.22s-1.59.79-2.67.79c-1.37,0-2.45-.42-3.25-1.26s-1.2-2.02-1.2-3.54.4-2.79,1.21-3.66,1.86-1.3,3.15-1.3,2.27.42,3.06,1.27,1.19,2.04,1.19,3.59c0,.09,0,.23,0,.42h-6.96c.06,1.03.35,1.81.87,2.36s1.17.82,1.95.82c.58,0,1.08-.15,1.49-.46s.73-.79.97-1.46ZM323.27,123.74h5.21c-.07-.79-.27-1.37-.6-1.77-.5-.61-1.16-.91-1.96-.91-.73,0-1.34.24-1.83.73s-.77,1.14-.82,1.95Z"/>
    <path class="d" d="M332.05,129.31v-12.88h1.58v12.88h-1.58Z"/>
    <path class="d" d="M348.96,127.79v1.52h-8.52c-.01-.38.05-.75.18-1.1.22-.58.56-1.15,1.04-1.71s1.17-1.21,2.07-1.95c1.4-1.15,2.35-2.06,2.84-2.73s.74-1.31.74-1.9c0-.63-.22-1.16-.67-1.59s-1.03-.65-1.75-.65c-.76,0-1.37.23-1.83.69s-.69,1.09-.7,1.9l-1.62-.17c.11-1.21.53-2.14,1.26-2.77s1.7-.95,2.93-.95,2.21.34,2.94,1.03,1.08,1.54,1.08,2.55c0,.52-.11,1.02-.32,1.52s-.56,1.02-1.05,1.57-1.3,1.31-2.44,2.27c-.95.8-1.56,1.34-1.83,1.62s-.49.57-.67.86h6.32Z"/>
  </g>
  <g>
    <path class="d" d="M77.21,319.8v-12.88h4.86c.86,0,1.51.04,1.96.12.63.11,1.16.31,1.59.6s.77.71,1.03,1.24.39,1.12.39,1.76c0,1.1-.35,2.02-1.05,2.78s-1.96,1.14-3.78,1.14h-3.3v5.24h-1.71ZM78.92,313.04h3.33c1.1,0,1.88-.21,2.35-.62s.7-.99.7-1.73c0-.54-.14-1-.41-1.38s-.63-.64-1.08-.76c-.29-.08-.82-.11-1.59-.11h-3.3v4.61Z"/>
    <path class="d" d="M95.11,318.65c-.59.5-1.15.85-1.69,1.05s-1.12.31-1.74.31c-1.03,0-1.81-.25-2.37-.75s-.83-1.14-.83-1.92c0-.46.1-.88.31-1.25s.48-.68.82-.91.72-.4,1.14-.52c.31-.08.78-.16,1.41-.24,1.28-.15,2.22-.33,2.82-.54,0-.22,0-.35,0-.41,0-.64-.15-1.1-.45-1.36-.4-.36-1.01-.54-1.8-.54-.74,0-1.29.13-1.65.39s-.62.72-.79,1.38l-1.55-.21c.14-.66.37-1.2.69-1.6s.79-.72,1.4-.94,1.31-.33,2.12-.33,1.45.09,1.94.28.86.42,1.1.71.4.64.49,1.08c.05.27.08.76.08,1.46v2.11c0,1.47.03,2.4.1,2.79s.2.76.4,1.12h-1.65c-.16-.33-.27-.71-.32-1.15ZM94.98,315.12c-.57.23-1.44.43-2.58.6-.65.09-1.11.2-1.38.32s-.48.29-.62.51-.22.48-.22.75c0,.42.16.77.48,1.05s.79.42,1.4.42,1.15-.13,1.63-.4.82-.63,1.04-1.09c.17-.36.26-.88.26-1.58v-.58Z"/>
    <path class="d" d="M99.03,319.8v-9.33h1.42v1.33c.69-1.03,1.68-1.54,2.97-1.54.56,0,1.08.1,1.55.3s.83.47,1.06.8.4.72.49,1.17c.06.29.09.81.09,1.54v5.74h-1.58v-5.68c0-.64-.06-1.13-.19-1.45s-.34-.57-.65-.76-.68-.29-1.1-.29c-.67,0-1.25.21-1.74.64s-.73,1.24-.73,2.43v5.1h-1.58Z"/>
    <path class="d" d="M115.43,316.8l1.63.2c-.26.96-.73,1.7-1.43,2.22s-1.59.79-2.67.79c-1.37,0-2.45-.42-3.25-1.26s-1.2-2.02-1.2-3.54.4-2.79,1.21-3.66,1.86-1.3,3.15-1.3,2.27.42,3.06,1.27,1.19,2.04,1.19,3.59c0,.09,0,.23,0,.42h-6.96c.06,1.03.35,1.81.87,2.36s1.17.82,1.95.82c.58,0,1.08-.15,1.49-.46s.73-.79.97-1.46ZM110.23,314.24h5.21c-.07-.79-.27-1.37-.6-1.77-.5-.61-1.16-.91-1.96-.91-.73,0-1.34.24-1.83.73s-.77,1.14-.82,1.95Z"/>
    <path class="d" d="M119.01,319.8v-12.88h1.58v12.88h-1.58Z"/>
    <path class="d" d="M127.62,316.4l1.58-.21c.18.9.49,1.54.93,1.94s.97.59,1.59.59c.74,0,1.37-.26,1.89-.77s.77-1.15.77-1.92-.24-1.33-.71-1.8-1.08-.71-1.81-.71c-.3,0-.67.06-1.12.18l.18-1.39c.11.01.19.02.26.02.67,0,1.28-.18,1.82-.53s.81-.89.81-1.63c0-.58-.2-1.06-.59-1.44s-.9-.57-1.52-.57-1.13.19-1.54.58-.67.97-.79,1.74l-1.58-.28c.19-1.06.63-1.88,1.32-2.47s1.54-.87,2.56-.87c.7,0,1.35.15,1.94.45s1.04.71,1.36,1.24.47,1.08.47,1.66-.15,1.06-.45,1.52-.74.82-1.33,1.09c.76.18,1.35.54,1.78,1.09s.63,1.25.63,2.08c0,1.12-.41,2.08-1.23,2.86s-1.86,1.17-3.11,1.17c-1.13,0-2.07-.34-2.82-1.01s-1.17-1.55-1.28-2.62Z"/>
  </g>
  <g>
    <path class="d" d="M290.24,319.8v-12.88h4.86c.86,0,1.51.04,1.96.12.63.11,1.16.31,1.59.6s.77.71,1.03,1.24.39,1.12.39,1.76c0,1.1-.35,2.02-1.05,2.78s-1.96,1.14-3.78,1.14h-3.3v5.24h-1.71ZM291.95,313.04h3.33c1.1,0,1.88-.21,2.35-.62s.7-.99.7-1.73c0-.54-.14-1-.41-1.38s-.63-.64-1.08-.76c-.29-.08-.82-.11-1.59-.11h-3.3v4.61Z"/>
    <path class="d" d="M308.14,318.65c-.59.5-1.15.85-1.69,1.05s-1.12.31-1.74.31c-1.03,0-1.81-.25-2.37-.75s-.83-1.14-.83-1.92c0-.46.1-.88.31-1.25s.48-.68.82-.91.72-.4,1.14-.52c.31-.08.78-.16,1.41-.24,1.28-.15,2.22-.33,2.82-.54,0-.22,0-.35,0-.41,0-.64-.15-1.1-.45-1.36-.4-.36-1.01-.54-1.8-.54-.74,0-1.29.13-1.65.39s-.62.72-.79,1.38l-1.55-.21c.14-.66.37-1.2.69-1.6s.79-.72,1.4-.94,1.31-.33,2.12-.33,1.45.09,1.94.28.86.42,1.1.71.4.64.49,1.08c.05.27.08.76.08,1.46v2.11c0,1.47.03,2.4.1,2.79s.2.76.4,1.12h-1.65c-.16-.33-.27-.71-.32-1.15ZM308.01,315.12c-.57.23-1.44.43-2.58.6-.65.09-1.11.2-1.38.32s-.48.29-.62.51-.22.48-.22.75c0,.42.16.77.48,1.05s.79.42,1.4.42,1.15-.13,1.63-.4.82-.63,1.04-1.09c.17-.36.26-.88.26-1.58v-.58Z"/>
    <path class="d" d="M312.06,319.8v-9.33h1.42v1.33c.69-1.03,1.68-1.54,2.97-1.54.56,0,1.08.1,1.55.3s.83.47,1.06.8.4.72.49,1.17c.06.29.09.81.09,1.54v5.74h-1.58v-5.68c0-.64-.06-1.13-.19-1.45s-.34-.57-.65-.76-.68-.29-1.1-.29c-.67,0-1.25.21-1.74.64s-.73,1.24-.73,2.43v5.1h-1.58Z"/>
    <path class="d" d="M328.46,316.8l1.63.2c-.26.96-.73,1.7-1.43,2.22s-1.59.79-2.67.79c-1.37,0-2.45-.42-3.25-1.26s-1.2-2.02-1.2-3.54.4-2.79,1.21-3.66,1.86-1.3,3.15-1.3,2.27.42,3.06,1.27,1.19,2.04,1.19,3.59c0,.09,0,.23,0,.42h-6.96c.06,1.03.35,1.81.87,2.36s1.17.82,1.95.82c.58,0,1.08-.15,1.49-.46s.73-.79.97-1.46ZM323.27,314.24h5.21c-.07-.79-.27-1.37-.6-1.77-.5-.61-1.16-.91-1.96-.91-.73,0-1.34.24-1.83.73s-.77,1.14-.82,1.95Z"/>
    <path class="d" d="M332.05,319.8v-12.88h1.58v12.88h-1.58Z"/>
    <path class="d" d="M345.71,319.8v-3.08h-5.59v-1.45l5.88-8.35h1.29v8.35h1.74v1.45h-1.74v3.08h-1.58ZM345.71,315.27v-5.81l-4.04,5.81h4.04Z"/>
  </g>
  <g>
    <path class="d" d="M590.04,225.4v-12.88h4.86c.86,0,1.51.04,1.96.12.63.11,1.16.31,1.59.6s.77.71,1.03,1.24.39,1.12.39,1.76c0,1.1-.35,2.02-1.05,2.78s-1.96,1.14-3.78,1.14h-3.3v5.24h-1.71ZM591.74,218.65h3.33c1.1,0,1.88-.21,2.35-.62s.69-.99.69-1.73c0-.54-.14-1-.41-1.38s-.63-.64-1.08-.76c-.29-.08-.82-.11-1.59-.11h-3.3v4.61Z"/>
    <path class="d" d="M607.93,224.25c-.59.5-1.15.85-1.69,1.05s-1.12.31-1.75.31c-1.03,0-1.81-.25-2.36-.75s-.83-1.14-.83-1.92c0-.46.1-.87.31-1.25s.48-.68.82-.91.72-.4,1.14-.52c.31-.08.78-.16,1.41-.24,1.28-.15,2.22-.33,2.82-.54,0-.22,0-.35,0-.41,0-.64-.15-1.1-.45-1.36-.4-.36-1-.54-1.8-.54-.74,0-1.29.13-1.65.39s-.62.72-.79,1.38l-1.55-.21c.14-.66.37-1.2.69-1.6s.79-.72,1.4-.94,1.32-.33,2.12-.33,1.44.09,1.94.28.86.42,1.1.71.4.64.49,1.08c.05.27.08.76.08,1.46v2.11c0,1.47.03,2.4.1,2.79s.2.76.4,1.12h-1.65c-.16-.33-.27-.71-.32-1.15ZM607.8,220.72c-.57.23-1.44.43-2.58.6-.65.09-1.11.2-1.38.32s-.48.29-.62.51-.22.48-.22.75c0,.42.16.77.48,1.05s.79.42,1.4.42,1.15-.13,1.63-.4.82-.63,1.05-1.09c.17-.36.25-.88.25-1.58v-.58Z"/>
    <path class="d" d="M611.85,225.4v-9.33h1.42v1.33c.69-1.03,1.68-1.54,2.97-1.54.56,0,1.08.1,1.55.3s.82.47,1.06.8.4.72.49,1.17c.06.29.09.81.09,1.54v5.74h-1.58v-5.68c0-.64-.06-1.13-.18-1.45s-.34-.57-.65-.76-.68-.29-1.1-.29c-.67,0-1.25.21-1.74.64s-.73,1.24-.73,2.43v5.1h-1.58Z"/>
    <path class="d" d="M628.25,222.4l1.63.2c-.26.96-.74,1.7-1.43,2.22s-1.59.79-2.67.79c-1.37,0-2.45-.42-3.25-1.26s-1.2-2.02-1.2-3.54.4-2.79,1.21-3.66,1.86-1.3,3.15-1.3,2.27.42,3.06,1.27,1.19,2.04,1.19,3.59c0,.09,0,.23,0,.42h-6.96c.06,1.03.35,1.81.87,2.36s1.17.82,1.95.82c.58,0,1.08-.15,1.49-.46s.74-.79.98-1.46ZM623.06,219.84h5.21c-.07-.79-.27-1.37-.6-1.77-.5-.61-1.16-.91-1.96-.91-.73,0-1.34.24-1.83.73s-.77,1.14-.82,1.95Z"/>
    <path class="d" d="M631.84,225.4v-12.88h1.58v12.88h-1.58Z"/>
    <path class="d" d="M640.44,222.03l1.66-.14c.12.81.41,1.42.86,1.82s.99.61,1.62.61c.76,0,1.41-.29,1.93-.86s.79-1.34.79-2.29-.25-1.61-.76-2.14-1.17-.78-1.99-.78c-.51,0-.97.12-1.38.35s-.73.53-.97.9l-1.49-.19,1.25-6.62h6.41v1.51h-5.14l-.69,3.46c.77-.54,1.58-.81,2.43-.81,1.12,0,2.07.39,2.85,1.17s1.16,1.78,1.16,3.01-.34,2.17-1.02,3.02c-.83,1.04-1.95,1.56-3.38,1.56-1.17,0-2.13-.33-2.87-.98s-1.17-1.53-1.27-2.61Z"/>
  </g>
  <line class="b" x1="421.57" y1="222.63" y2="222.63"/>
  <line class="b" x1="211.74" y1="30.97" x2="211.74" y2="414.29"/>
  <line class="b" x1="426.58" y1="30.97" x2="426.58" y2="414.29"/>
  <g>
    <line class="c" x1="4.03" y1="21.32" x2="795.97" y2="21.32"/>
    <polygon class="d" points=".5 21.32 5.47 23.35 4.29 21.32 5.47 19.28 .5 21.32"/>
    <polygon class="d" points="799.5 21.32 794.52 23.35 795.7 21.32 794.52 19.28 799.5 21.32"/>
  </g>
  <g>
    <path class="d" d="M397.11,9.82c-.66-.24-1.14-.58-1.46-1.03s-.47-.98-.47-1.6c0-.94.34-1.73,1.01-2.36s1.57-.96,2.69-.96,2.03.33,2.72.98,1.03,1.45,1.03,2.39c0,.6-.16,1.12-.47,1.56s-.79.78-1.43,1.02c.79.26,1.39.67,1.81,1.25s.62,1.26.62,2.06c0,1.1-.39,2.03-1.17,2.78s-1.8,1.12-3.08,1.12-2.3-.38-3.08-1.13-1.17-1.69-1.17-2.82c0-.84.21-1.54.64-2.1s1.03-.95,1.82-1.16ZM396.29,13.09c0,.45.11.89.32,1.31s.53.75.95.98.88.35,1.36.35c.76,0,1.38-.24,1.87-.73s.74-1.1.74-1.85-.25-1.39-.76-1.89-1.14-.75-1.9-.75-1.36.25-1.85.74-.73,1.11-.73,1.85ZM396.8,7.14c0,.61.2,1.11.59,1.49s.9.58,1.53.58,1.11-.19,1.5-.58.58-.85.58-1.41-.2-1.07-.6-1.46-.9-.59-1.5-.59-1.1.19-1.5.58-.6.85-.6,1.39Z"/>
    <path class="d" d="M404.69,10.45c0-1.52.16-2.75.47-3.68s.78-1.65,1.4-2.15c.62-.5,1.4-.76,2.33-.76.69,0,1.3.14,1.82.42s.95.68,1.29,1.2.61,1.16.8,1.92.29,1.77.29,3.05c0,1.51-.16,2.73-.47,3.66s-.78,1.65-1.39,2.15c-.62.51-1.4.76-2.34.76-1.24,0-2.22-.45-2.93-1.34-.85-1.07-1.27-2.82-1.27-5.24ZM406.31,10.45c0,2.12.25,3.52.74,4.22.5.7,1.11,1.05,1.83,1.05s1.34-.35,1.83-1.05c.49-.7.74-2.11.74-4.22s-.25-3.53-.74-4.23c-.5-.7-1.11-1.05-1.85-1.05s-1.31.31-1.74.92c-.54.79-.82,2.24-.82,4.35Z"/>
    <path class="d" d="M414.7,10.45c0-1.52.16-2.75.47-3.68s.78-1.65,1.4-2.15c.62-.5,1.4-.76,2.33-.76.69,0,1.3.14,1.82.42s.95.68,1.29,1.2.61,1.16.8,1.92.29,1.77.29,3.05c0,1.51-.16,2.73-.47,3.66s-.78,1.65-1.39,2.15c-.62.51-1.4.76-2.34.76-1.24,0-2.22-.45-2.93-1.34-.85-1.07-1.27-2.82-1.27-5.24ZM416.32,10.45c0,2.12.25,3.52.74,4.22s1.11,1.05,1.83,1.05,1.34-.35,1.83-1.05c.49-.7.74-2.11.74-4.22s-.25-3.53-.74-4.23c-.5-.7-1.11-1.05-1.85-1.05s-1.31.31-1.74.92c-.54.79-.82,2.24-.82,4.35Z"/>
    <path class="d" d="M430.15,20.38V7.47h1.44v1.21c.34-.47.72-.83,1.15-1.07s.95-.36,1.56-.36c.8,0,1.5.21,2.11.62s1.07.99,1.38,1.74.47,1.57.47,2.46c0,.96-.17,1.81-.51,2.58-.34.76-.84,1.35-1.49,1.76s-1.34.61-2.06.61c-.53,0-1-.11-1.42-.33s-.76-.5-1.03-.84v4.54h-1.58ZM431.58,12.19c0,1.2.24,2.09.73,2.66s1.08.86,1.77.86,1.3-.3,1.81-.89c.5-.59.75-1.52.75-2.76s-.25-2.08-.73-2.67c-.49-.59-1.07-.89-1.75-.89s-1.27.31-1.79.94c-.52.63-.78,1.55-.78,2.75Z"/>
    <path class="d" d="M439.11,16.81l3.41-4.85-3.16-4.48h1.98l1.43,2.19c.27.42.49.76.65,1.05.26-.39.5-.73.71-1.03l1.57-2.21h1.89l-3.23,4.39,3.47,4.94h-1.94l-1.92-2.9-.51-.78-2.45,3.68h-1.92Z"/>
  </g>
  <line class="c" x1=".28" y1="29.1" x2=".28" y2="17.94"/>
  <line class="c" x1="799.7" y1="29.1" x2="799.7" y2="17.94"/>
</svg>