<?xml version="1.0" encoding="UTF-8"?>
<svg id="a" data-name="Layer 1" xmlns="http://www.w3.org/2000/svg" viewBox="0 0 800 424.11">
  <defs>
    <style>
      .b {
        fill: #3974b7;
      }

      .c {
        fill: none;
        stroke: #3974b7;
        stroke-miterlimit: 10;
        stroke-width: .5px;
      }

      .d {
        fill: #e6e7e8;
      }
    </style>
  </defs>
  <rect class="d" x="0" y="31.1" width="800" height="383.33"/>
  <g>
    <line class="c" x1="4.07" y1="21.32" x2="796.01" y2="21.32"/>
    <polygon class="b" points=".54 21.32 5.51 23.35 4.33 21.32 5.51 19.28 .54 21.32"/>
    <polygon class="b" points="799.54 21.32 794.56 23.35 795.74 21.32 794.56 19.28 799.54 21.32"/>
  </g>
  <g>
    <path class="b" d="M397.15,9.82c-.66-.24-1.14-.58-1.46-1.03s-.47-.98-.47-1.6c0-.94.34-1.73,1.01-2.36s1.57-.96,2.69-.96,2.03.33,2.72.98,1.03,1.45,1.03,2.39c0,.6-.16,1.12-.47,1.56s-.79.78-1.43,1.02c.79.26,1.39.67,1.81,1.25s.62,1.26.62,2.06c0,1.1-.39,2.03-1.17,2.78s-1.8,1.12-3.08,1.12-2.3-.38-3.08-1.13-1.17-1.69-1.17-2.82c0-.84.21-1.54.64-2.1s1.03-.95,1.81-1.16ZM396.32,13.09c0,.45.11.89.32,1.31s.53.75.95.98.88.35,1.36.35c.76,0,1.38-.24,1.87-.73s.74-1.1.74-1.85-.25-1.39-.76-1.89-1.14-.75-1.9-.75-1.36.25-1.85.74-.73,1.11-.73,1.85ZM396.83,7.14c0,.61.2,1.11.59,1.49s.9.58,1.53.58,1.11-.19,1.5-.58.58-.85.58-1.41-.2-1.07-.6-1.46-.9-.59-1.5-.59-1.1.19-1.5.58-.6.85-.6,1.39Z"/>
    <path class="b" d="M404.73,10.45c0-1.52.16-2.75.47-3.68s.78-1.65,1.4-2.15c.62-.5,1.4-.76,2.33-.76.69,0,1.3.14,1.82.42s.95.68,1.29,1.2.61,1.16.8,1.92.29,1.77.29,3.05c0,1.51-.16,2.73-.47,3.66s-.78,1.65-1.39,2.15c-.62.51-1.4.76-2.34.76-1.24,0-2.22-.45-2.93-1.34-.85-1.07-1.27-2.82-1.27-5.24ZM406.35,10.45c0,2.12.25,3.52.74,4.22.5.7,1.11,1.05,1.83,1.05s1.34-.35,1.83-1.05c.49-.7.74-2.11.74-4.22s-.25-3.53-.74-4.23c-.5-.7-1.11-1.05-1.85-1.05s-1.31.31-1.74.92c-.54.79-.82,2.24-.82,4.35Z"/>
    <path class="b" d="M414.74,10.45c0-1.52.16-2.75.47-3.68s.78-1.65,1.4-2.15c.62-.5,1.4-.76,2.33-.76.69,0,1.3.14,1.82.42s.95.68,1.29,1.2.61,1.16.8,1.92.29,1.77.29,3.05c0,1.51-.16,2.73-.47,3.66s-.78,1.65-1.39,2.15c-.62.51-1.4.76-2.34.76-1.24,0-2.22-.45-2.93-1.34-.85-1.07-1.27-2.82-1.27-5.24ZM416.36,10.45c0,2.12.25,3.52.74,4.22s1.11,1.05,1.83,1.05,1.34-.35,1.83-1.05c.49-.7.74-2.11.74-4.22s-.25-3.53-.74-4.23c-.5-.7-1.11-1.05-1.85-1.05s-1.31.31-1.74.92c-.54.79-.82,2.24-.82,4.35Z"/>
    <path class="b" d="M430.19,20.38V7.47h1.44v1.21c.34-.47.72-.83,1.15-1.07s.95-.36,1.56-.36c.8,0,1.5.21,2.11.62s1.07.99,1.38,1.74.47,1.57.47,2.46c0,.96-.17,1.81-.51,2.58-.34.76-.84,1.35-1.49,1.76s-1.34.61-2.06.61c-.53,0-1-.11-1.42-.33s-.76-.5-1.03-.84v4.54h-1.58ZM431.62,12.19c0,1.2.24,2.09.73,2.66s1.08.86,1.77.86,1.3-.3,1.81-.89c.5-.59.75-1.52.75-2.76s-.25-2.08-.73-2.67c-.49-.59-1.07-.89-1.75-.89s-1.27.31-1.79.94c-.52.63-.78,1.55-.78,2.75Z"/>
    <path class="b" d="M439.15,16.81l3.41-4.85-3.16-4.48h1.98l1.43,2.19c.27.42.49.76.65,1.05.26-.39.5-.73.71-1.03l1.57-2.21h1.89l-3.23,4.39,3.47,4.94h-1.94l-1.92-2.9-.51-.78-2.45,3.68h-1.92Z"/>
  </g>
  <g>
    <path class="b" d="M374.02,222.76v-12.88h8.69v1.52h-6.99v3.99h6.05v1.52h-6.05v5.85h-1.71Z"/>
    <path class="b" d="M384.73,211.7v-1.82h1.58v1.82h-1.58ZM384.73,222.76v-9.33h1.58v9.33h-1.58Z"/>
    <path class="b" d="M388.43,223.54l1.54.23c.06.47.24.82.54,1.04.39.29.93.44,1.61.44.73,0,1.3-.15,1.7-.44s.67-.7.81-1.23c.08-.32.12-1,.11-2.03-.69.81-1.55,1.22-2.58,1.22-1.28,0-2.28-.46-2.98-1.39s-1.05-2.04-1.05-3.33c0-.89.16-1.71.48-2.47s.79-1.33,1.4-1.74,1.33-.62,2.16-.62c1.1,0,2.01.45,2.72,1.34v-1.12h1.46v8.07c0,1.45-.15,2.48-.44,3.09s-.76,1.09-1.41,1.44-1.43.53-2.37.53c-1.11,0-2.01-.25-2.7-.75s-1.02-1.25-.99-2.26ZM389.74,217.93c0,1.22.24,2.12.73,2.68s1.1.84,1.83.84,1.34-.28,1.83-.84.74-1.44.74-2.63-.25-2-.76-2.58-1.12-.87-1.83-.87-1.3.29-1.79.86-.74,1.42-.74,2.54Z"/>
    <path class="b" d="M404.85,222.76v-1.37c-.73,1.05-1.71,1.58-2.96,1.58-.55,0-1.06-.11-1.54-.32s-.83-.48-1.06-.8-.39-.71-.49-1.17c-.06-.31-.1-.8-.1-1.48v-5.78h1.58v5.18c0,.83.03,1.38.1,1.67.1.42.31.74.63.98s.72.36,1.2.36.92-.12,1.34-.37.71-.57.88-.99.26-1.03.26-1.82v-5h1.58v9.33h-1.42Z"/>
    <path class="b" d="M408.73,222.76v-9.33h1.42v1.42c.36-.66.7-1.1,1.01-1.31s.65-.32,1.02-.32c.53,0,1.08.17,1.63.51l-.54,1.47c-.39-.23-.77-.34-1.16-.34-.35,0-.66.1-.93.31s-.47.5-.59.87c-.18.56-.26,1.18-.26,1.85v4.89h-1.58Z"/>
    <path class="b" d="M421.13,219.76l1.63.2c-.26.96-.74,1.7-1.43,2.22s-1.59.79-2.67.79c-1.37,0-2.45-.42-3.25-1.26s-1.2-2.02-1.2-3.54.4-2.79,1.21-3.66,1.86-1.3,3.15-1.3,2.27.42,3.06,1.27,1.19,2.04,1.19,3.59c0,.09,0,.23,0,.42h-6.96c.06,1.03.35,1.81.87,2.36s1.17.82,1.95.82c.58,0,1.08-.15,1.49-.46s.74-.79.98-1.46ZM415.93,217.2h5.21c-.07-.79-.27-1.37-.6-1.77-.5-.61-1.16-.91-1.96-.91-.73,0-1.34.24-1.83.73s-.77,1.14-.82,1.95Z"/>
    <path class="b" d="M435.84,221.61c-.59.5-1.15.85-1.69,1.05s-1.12.31-1.74.31c-1.03,0-1.81-.25-2.36-.75s-.83-1.14-.83-1.92c0-.46.1-.88.31-1.25s.48-.68.82-.91.72-.4,1.14-.52c.31-.08.78-.16,1.41-.24,1.28-.15,2.22-.33,2.82-.54,0-.22,0-.35,0-.41,0-.64-.15-1.1-.45-1.36-.4-.36-1-.54-1.8-.54-.74,0-1.29.13-1.65.39s-.62.72-.79,1.38l-1.55-.21c.14-.66.37-1.2.69-1.6s.79-.72,1.4-.94,1.32-.33,2.12-.33,1.44.09,1.94.28.86.42,1.1.71.4.64.49,1.08c.05.27.08.76.08,1.46v2.11c0,1.47.03,2.4.1,2.79s.2.76.4,1.12h-1.65c-.16-.33-.27-.71-.32-1.15ZM435.71,218.08c-.57.23-1.44.43-2.58.6-.65.09-1.11.2-1.38.32s-.48.29-.62.51-.22.48-.22.75c0,.42.16.77.48,1.05s.79.42,1.4.42,1.15-.13,1.63-.4.82-.63,1.05-1.09c.17-.36.25-.88.25-1.58v-.58Z"/>
    <path class="b" d="M439.74,222.76v-9.33h1.42v1.42c.36-.66.7-1.1,1.01-1.31s.65-.32,1.02-.32c.53,0,1.08.17,1.63.51l-.54,1.47c-.39-.23-.77-.34-1.16-.34-.35,0-.66.1-.93.31s-.47.5-.59.87c-.18.56-.26,1.18-.26,1.85v4.89h-1.58Z"/>
    <path class="b" d="M452.14,219.76l1.63.2c-.26.96-.74,1.7-1.43,2.22s-1.59.79-2.67.79c-1.37,0-2.45-.42-3.25-1.26s-1.2-2.02-1.2-3.54.4-2.79,1.21-3.66,1.86-1.3,3.15-1.3,2.27.42,3.06,1.27,1.19,2.04,1.19,3.59c0,.09,0,.23,0,.42h-6.96c.06,1.03.35,1.81.87,2.36s1.17.82,1.95.82c.58,0,1.08-.15,1.49-.46s.74-.79.98-1.46ZM446.95,217.2h5.21c-.07-.79-.27-1.37-.6-1.77-.5-.61-1.16-.91-1.96-.91-.73,0-1.34.24-1.83.73s-.77,1.14-.82,1.95Z"/>
    <path class="b" d="M461.86,221.61c-.59.5-1.15.85-1.69,1.05s-1.12.31-1.74.31c-1.03,0-1.81-.25-2.36-.75s-.83-1.14-.83-1.92c0-.46.1-.88.31-1.25s.48-.68.82-.91.72-.4,1.14-.52c.31-.08.78-.16,1.41-.24,1.28-.15,2.22-.33,2.82-.54,0-.22,0-.35,0-.41,0-.64-.15-1.1-.45-1.36-.4-.36-1-.54-1.8-.54-.74,0-1.29.13-1.65.39s-.62.72-.79,1.38l-1.55-.21c.14-.66.37-1.2.69-1.6s.79-.72,1.4-.94,1.32-.33,2.12-.33,1.44.09,1.94.28.86.42,1.1.71.4.64.49,1.08c.05.27.08.76.08,1.46v2.11c0,1.47.03,2.4.1,2.79s.2.76.4,1.12h-1.65c-.16-.33-.27-.71-.32-1.15ZM461.72,218.08c-.57.23-1.44.43-2.58.6-.65.09-1.11.2-1.38.32s-.48.29-.62.51-.22.48-.22.75c0,.42.16.77.48,1.05s.79.42,1.4.42,1.15-.13,1.63-.4.82-.63,1.05-1.09c.17-.36.25-.88.25-1.58v-.58Z"/>
  </g>
  <line class="c" x1=".31" y1="29.1" x2=".31" y2="17.94"/>
  <line class="c" x1="799.74" y1="29.1" x2="799.74" y2="17.94"/>
</svg>