<?xml version="1.0" encoding="UTF-8"?>
<svg id="a" data-name="Layer 1" xmlns="http://www.w3.org/2000/svg" xmlns:xlink="http://www.w3.org/1999/xlink" viewBox="0 0 97.27 32.73">
  <defs>
    <style>
      .d {
        fill: url(#c);
      }

      .e {
        fill: url(#b);
      }

      .f {
        fill: #1f1d1d;
      }
    </style>
    <linearGradient id="b" x1="21.91" y1="7.68" x2="7.84" y2="25.05" gradientUnits="userSpaceOnUse">
      <stop offset="0" stop-color="#1557af"/>
      <stop offset=".52" stop-color="#f62a32"/>
      <stop offset=".74" stop-color="#f62b31"/>
      <stop offset=".82" stop-color="#f63231"/>
      <stop offset=".88" stop-color="#f83e30"/>
      <stop offset=".93" stop-color="#f94f2e"/>
      <stop offset=".96" stop-color="#fc652d"/>
      <stop offset="1" stop-color="#fe7f2b"/>
      <stop offset="1" stop-color="#ff802b"/>
    </linearGradient>
    <linearGradient id="c" x1="24.43" y1="4.56" x2="5.31" y2="28.17" xlink:href="#b"/>
  </defs>
  <path class="e" d="M25.94,16.2l-5.45-5.45s-.01,0-.02-.01c-.34-.34-.71-.64-1.1-.91h3.22c.39,0,.7-.31.7-.7s-.31-.7-.7-.7h-7.71c-.49,0-.98.05-1.45.14l2.28-2.28c.27-.27.27-.72,0-.99s-.72-.27-.99,0l-5.45,5.45s0,.01-.01.02c-.34.34-.64.71-.91,1.1v-3.22c0-.39-.31-.7-.7-.7s-.7.31-.7.7v7.71c0,.49.05.98.14,1.45l-2.28-2.28c-.27-.27-.72-.27-.99,0s-.27.72,0,.99l5.45,5.45s.01,0,.02.01c.34.34.71.64,1.1.91h-3.22c-.39,0-.7.31-.7.7s.31.7.7.7h7.71c.49,0,.98-.05,1.45-.14l-2.28,2.28c-.27.27-.27.72,0,.99.14.14.32.21.5.21s.36-.07.5-.21l5.45-5.45s0-.01.01-.02c.34-.34.64-.71.91-1.1v3.22c0,.39.31.7.7.7s.7-.31.7-.7v-7.71c0-.49-.05-.98-.14-1.45l2.28,2.28c.14.14.32.21.5.21s.36-.07.5-.21c.27-.27.27-.72,0-.99ZM14.87,22.91c-3.61,0-6.54-2.93-6.54-6.54s2.93-6.54,6.54-6.54,6.54,2.93,6.54,6.54-2.93,6.54-6.54,6.54Z"/>
  <path class="d" d="M14.87,32.3c-.81,0-1.61-.21-2.33-.62l-9.77-5.64c-1.44-.83-2.33-2.38-2.33-4.04v-11.28c0-1.66.89-3.21,2.33-4.04L12.54,1.05c1.44-.83,3.22-.83,4.66,0l9.77,5.64c1.44.83,2.33,2.38,2.33,4.04v11.28c0,1.66-.89,3.21-2.33,4.04l-9.77,5.64c-.72.41-1.52.62-2.33.62ZM14.87,1.83c-.56,0-1.13.15-1.63.44L3.47,7.9c-1.01.58-1.63,1.66-1.63,2.82v11.28c0,1.16.62,2.24,1.63,2.82l9.77,5.64c1.01.58,2.25.58,3.26,0l9.77-5.64c1-.58,1.63-1.66,1.63-2.82v-11.28c0-1.16-.62-2.24-1.63-2.82l-9.77-5.64c-.5-.29-1.07-.44-1.63-.44Z"/>
  <g>
    <g>
      <path class="f" d="M34.21,12.9l.75-1.96c.8.69,2,1.17,3.14,1.17,1.3,0,1.83-.51,1.83-1.2,0-2.1-5.53-.66-5.53-4.83,0-1.91,1.3-3.5,4.01-3.5,1.2,0,2.42.34,3.3,1l-.68,1.97c-.88-.59-1.79-.88-2.63-.88-1.3,0-1.81.58-1.81,1.28,0,2.07,5.53.64,5.53,4.77,0,1.88-1.32,3.48-4.03,3.48-1.51,0-3.03-.53-3.87-1.3Z"/>
      <path class="f" d="M43.76,2.77h2.2v11.24h-2.2V2.77Z"/>
      <path class="f" d="M50.32,4.89h-3.04v-2.12h8.28v2.12h-3.04v9.12h-2.2V4.89Z"/>
      <path class="f" d="M65.6,2.77v11.24h-2.2v-4.61h-4.32v4.61h-2.2V2.77h2.2v4.43h4.32V2.77h2.2Z"/>
    </g>
    <g>
      <path class="f" d="M79.68,2.77v11.24h-2.2v-4.61h-4.32v4.61h-2.2V2.77h2.2v4.43h4.32V2.77h2.2Z"/>
      <path class="f" d="M88.14,5.37v8.64h-2.01v-1.03c-.56.75-1.37,1.16-2.27,1.16-1.83,0-3.12-1.22-3.12-3.88v-4.88h2.12v4.51c0,1.44.54,2.09,1.48,2.09s1.68-.74,1.68-2.33v-4.27h2.12Z"/>
      <path class="f" d="M97.05,9.69c0,2.71-1.59,4.45-3.64,4.45-.98,0-1.76-.37-2.29-1.12v1h-2.02V2.09h2.12v4.19c.54-.71,1.29-1.04,2.2-1.04,2.05,0,3.64,1.73,3.64,4.45ZM94.9,9.69c0-1.49-.8-2.39-1.86-2.39s-1.86.9-1.86,2.39.8,2.39,1.86,2.39,1.86-.9,1.86-2.39Z"/>
    </g>
  </g>
  <g>
    <path class="f" d="M37.04,20.61c0-.2-.07-.36-.21-.47-.14-.11-.39-.22-.76-.34-.37-.11-.66-.24-.87-.38-.41-.27-.62-.61-.62-1.04,0-.38.15-.68.45-.93.3-.24.68-.36,1.16-.36.32,0,.6.06.84.18.25.12.44.29.58.51.14.22.21.46.21.73h-.78c0-.24-.07-.43-.22-.57-.15-.14-.36-.21-.64-.21-.26,0-.46.06-.6.17-.14.11-.21.27-.21.47,0,.17.08.31.23.43.15.11.41.22.76.33.35.11.64.23.85.37.21.14.37.3.47.47s.15.39.15.62c0,.39-.14.7-.43.93-.29.23-.68.34-1.18.34-.33,0-.63-.06-.9-.19-.28-.12-.49-.3-.64-.52s-.23-.48-.23-.77h.79c0,.26.08.47.26.61.17.15.41.22.73.22.27,0,.48-.06.62-.17.14-.11.21-.26.21-.45Z"/>
    <path class="f" d="M39.68,20.7l.68-2.35h.81l-1.34,3.98c-.21.58-.55.87-1.05.87-.11,0-.23-.02-.36-.06v-.6h.14c.19,0,.33-.03.43-.1.1-.07.17-.19.23-.36l.11-.3-1.18-3.44h.82l.71,2.35Z"/>
    <path class="f" d="M42.37,18.35l.02.4c.25-.31.58-.46.98-.46.7,0,1.06.41,1.07,1.24v2.29h-.76v-2.24c0-.22-.05-.38-.14-.49-.09-.11-.24-.16-.45-.16-.3,0-.53.14-.68.42v2.46h-.76v-3.46h.71Z"/>
    <path class="f" d="M46.66,21.25c.19,0,.35-.06.47-.17.12-.11.19-.25.2-.42h.71c0,.22-.07.42-.2.6-.12.19-.29.33-.5.44-.21.11-.44.16-.68.16-.47,0-.84-.16-1.12-.47-.28-.31-.41-.75-.41-1.3v-.08c0-.53.14-.95.41-1.26.27-.32.65-.47,1.12-.47.4,0,.73.12.98.36.25.24.38.55.4.94h-.71c0-.2-.07-.36-.2-.49-.12-.13-.28-.19-.47-.19-.24,0-.43.09-.57.27s-.2.46-.2.83v.12c0,.38.07.65.2.84s.32.28.57.28Z"/>
    <path class="f" d="M49.42,18.73c.25-.29.56-.44.94-.44.72,0,1.08.42,1.09,1.26v2.26h-.76v-2.23c0-.24-.05-.41-.15-.51s-.25-.15-.44-.15c-.3,0-.53.14-.68.42v2.47h-.76v-4.91h.76v1.83Z"/>
    <path class="f" d="M54.04,19.06c-.1-.02-.2-.03-.31-.03-.35,0-.58.14-.7.41v2.36h-.76v-3.46h.72l.02.39c.18-.3.44-.45.76-.45.11,0,.2.02.27.04v.73Z"/>
    <path class="f" d="M54.33,20.05c0-.34.07-.64.2-.92.13-.27.31-.48.55-.63.24-.15.51-.22.82-.22.45,0,.82.15,1.11.45s.44.7.46,1.2v.18c0,.34-.06.65-.19.91s-.31.48-.55.62-.51.22-.82.22c-.48,0-.86-.16-1.14-.49-.29-.33-.43-.76-.43-1.3v-.04ZM55.09,20.11c0,.36.07.63.21.84.14.2.34.3.6.3s.45-.1.6-.31c.14-.2.21-.5.21-.9,0-.35-.07-.63-.22-.83s-.34-.31-.6-.31-.44.1-.59.3c-.14.2-.22.5-.22.9Z"/>
    <path class="f" d="M59.12,17.51v.84h.59v.58h-.59v1.93c0,.13.03.23.08.29s.14.09.27.09c.09,0,.18-.01.26-.03v.6c-.17.05-.34.07-.5.07-.58,0-.87-.33-.87-.99v-1.96h-.55v-.58h.55v-.84h.76Z"/>
    <path class="f" d="M62.11,19.06c-.1-.02-.2-.03-.31-.03-.35,0-.58.14-.7.41v2.36h-.76v-3.46h.72l.02.39c.18-.3.44-.45.76-.45.11,0,.2.02.27.04v.73Z"/>
    <path class="f" d="M62.4,20.05c0-.34.07-.64.2-.92.13-.27.31-.48.55-.63.24-.15.51-.22.82-.22.45,0,.82.15,1.11.45s.44.7.46,1.2v.18c0,.34-.06.65-.19.91s-.31.48-.55.62-.51.22-.82.22c-.48,0-.86-.16-1.14-.49-.29-.33-.43-.76-.43-1.3v-.04ZM63.16,20.11c0,.36.07.63.21.84.14.2.34.3.6.3s.45-.1.6-.31c.14-.2.21-.5.21-.9,0-.35-.07-.63-.22-.83s-.34-.31-.6-.31-.44.1-.59.3c-.14.2-.22.5-.22.9Z"/>
    <path class="f" d="M66.94,18.35l.02.4c.25-.31.58-.46.98-.46.7,0,1.06.41,1.07,1.24v2.29h-.76v-2.24c0-.22-.05-.38-.14-.49-.09-.11-.24-.16-.45-.16-.3,0-.53.14-.68.42v2.46h-.76v-3.46h.71Z"/>
    <path class="f" d="M72.4,21.81h-.79v-4.65h.79v4.65Z"/>
    <path class="f" d="M75.1,20.02h-.88v1.79h-.79v-4.65h1.59c.52,0,.93.12,1.21.36.28.24.43.59.43,1.05,0,.31-.07.57-.22.78s-.35.37-.61.48l1.02,1.94v.04h-.84l-.91-1.79ZM74.22,19.37h.81c.27,0,.47-.07.62-.21.15-.14.22-.33.22-.56s-.07-.44-.21-.58c-.14-.14-.34-.21-.62-.21h-.83v1.56Z"/>
    <path class="f" d="M78.87,20.14h-1.63v-.63h1.63v.63Z"/>
    <path class="f" d="M82.9,17.81h-1.41v4h-.78v-4h-1.4v-.65h3.59v.65Z"/>
    <path class="f" d="M87.16,21.81h-.78v-2.06h-2.03v2.06h-.79v-4.65h.79v1.94h2.03v-1.94h.78v4.65Z"/>
    <path class="f" d="M88.89,21.19h1.79v.62h-2.73v-.51l1.71-2.32h-1.68v-.63h2.64v.49l-1.73,2.35Z"/>
    <path class="f" d="M35.97,27.65l-.51.56v1.45h-.79v-4.65h.79v2.18l.44-.55,1.33-1.63h.95l-1.68,2.06,1.78,2.59h-.93l-1.36-2.01Z"/>
    <path class="f" d="M39.38,26.2l.02.4c.25-.31.58-.46.98-.46.7,0,1.06.41,1.07,1.24v2.29h-.76v-2.24c0-.22-.05-.38-.14-.49-.09-.11-.24-.16-.45-.16-.3,0-.53.14-.68.42v2.46h-.76v-3.46h.71Z"/>
    <path class="f" d="M42.14,27.9c0-.34.07-.64.2-.92.13-.27.31-.48.55-.63.24-.15.51-.22.82-.22.45,0,.82.15,1.11.45s.44.7.46,1.2v.18c0,.34-.06.65-.19.91s-.31.48-.55.62-.51.22-.82.22c-.48,0-.86-.16-1.14-.49-.29-.33-.43-.76-.43-1.3v-.04ZM42.9,27.97c0,.36.07.63.21.84.14.2.34.3.6.3s.45-.1.6-.31c.14-.2.21-.5.21-.9,0-.35-.07-.63-.22-.83s-.34-.31-.6-.31-.44.1-.59.3c-.14.2-.22.5-.22.9Z"/>
    <path class="f" d="M48.93,28.59l.54-2.39h.74l-.92,3.46h-.62l-.72-2.37-.71,2.37h-.62l-.92-3.46h.74l.54,2.36.69-2.36h.57l.7,2.39Z"/>
    <path class="f" d="M51.58,29.66h-.76v-4.91h.76v4.91Z"/>
    <path class="f" d="M53.95,29.73c-.48,0-.87-.16-1.17-.46-.3-.31-.45-.72-.45-1.24v-.1c0-.35.06-.65.19-.93.13-.27.31-.48.55-.63s.5-.23.78-.23c.46,0,.81.15,1.06.45s.38.73.38,1.28v.31h-2.2c.02.29.12.51.28.68.16.17.37.25.61.25.35,0,.63-.14.85-.43l.41.4c-.13.21-.31.37-.54.48-.22.11-.48.17-.76.17ZM53.86,26.76c-.21,0-.38.07-.5.22-.13.15-.21.36-.24.62h1.44v-.06c-.02-.26-.08-.46-.2-.59-.12-.13-.28-.2-.49-.2Z"/>
    <path class="f" d="M55.81,27.91c0-.53.12-.96.36-1.28.24-.32.56-.48.97-.48.36,0,.64.13.87.38v-1.77h.76v4.91h-.68l-.04-.36c-.23.28-.53.42-.91.42s-.71-.16-.96-.49c-.24-.33-.37-.77-.37-1.33ZM56.57,27.97c0,.35.07.63.2.82.13.2.32.3.56.3.31,0,.54-.14.68-.43v-1.48c-.14-.28-.36-.42-.67-.42-.24,0-.43.1-.57.3s-.2.5-.2.9Z"/>
    <path class="f" d="M59.48,27.91c0-.54.12-.97.37-1.29.25-.32.57-.48.98-.48.38,0,.69.14.91.41l.03-.35h.68v3.35c0,.45-.14.81-.41,1.07-.28.26-.65.39-1.11.39-.25,0-.49-.05-.72-.16s-.41-.24-.54-.41l.36-.47c.23.28.52.43.86.43.25,0,.45-.07.59-.21.15-.14.22-.34.22-.62v-.23c-.22.25-.51.37-.87.37-.39,0-.72-.16-.97-.48-.25-.32-.38-.77-.38-1.34ZM60.24,27.97c0,.35.07.62.21.82.14.2.33.3.57.3.3,0,.53-.13.68-.4v-1.52c-.14-.26-.37-.39-.67-.39-.25,0-.44.1-.58.3-.14.2-.21.5-.21.89Z"/>
    <path class="f" d="M64.77,29.73c-.48,0-.87-.16-1.17-.46-.3-.31-.45-.72-.45-1.24v-.1c0-.35.06-.65.19-.93.13-.27.31-.48.55-.63s.5-.23.78-.23c.46,0,.81.15,1.06.45s.38.73.38,1.28v.31h-2.2c.02.29.12.51.28.68.16.17.37.25.61.25.35,0,.63-.14.85-.43l.41.4c-.13.21-.31.37-.54.48-.22.11-.48.17-.76.17ZM64.68,26.76c-.21,0-.38.07-.5.22-.13.15-.21.36-.24.62h1.44v-.06c-.02-.26-.08-.46-.2-.59-.12-.13-.28-.2-.49-.2Z"/>
    <path class="f" d="M72.1,29.66h-.78v-2.06h-2.03v2.06h-.79v-4.65h.79v1.94h2.03v-1.94h.78v4.65Z"/>
    <path class="f" d="M75.06,29.32c-.22.27-.54.4-.95.4-.37,0-.64-.11-.83-.33-.19-.22-.28-.54-.28-.95v-2.24h.76v2.23c0,.44.18.66.53.66s.62-.14.74-.41v-2.48h.76v3.46h-.71l-.02-.34Z"/>
    <path class="f" d="M79.58,27.97c0,.54-.12.96-.35,1.28s-.55.48-.96.48-.7-.15-.92-.44l-.04.37h-.68v-4.91h.76v1.78c.22-.26.51-.4.88-.4.41,0,.73.16.97.47.23.31.35.75.35,1.31v.04ZM78.82,27.9c0-.38-.06-.66-.19-.84s-.32-.28-.56-.28c-.33,0-.56.15-.69.44v1.43c.13.3.37.45.7.45.24,0,.42-.09.55-.27.13-.18.2-.46.2-.82v-.1Z"/>
  </g>
</svg>